#!OML:ASF F:\VICON\USERDATA\INSTALL\rory3\rory3.ASF
:FULLY-SPECIFIED
:DEGREES
32
root 0.938554 17.8403 -14.8205 7.39725 -5.07086 0.384221
lowerback 6.65463 0.185151 -1.97393
upperback -0.0917579 0.177922 2.19762
thorax -3.84318 0.146909 3.37161
lowerneck -16.6021 -2.82122 -9.74123
upperneck 27.4715 -2.49164 4.50259
head 11.9716 -1.56668 2.97326
rclavicle -1.64991e-014 4.77083e-015
rhumerus -34.2748 -9.16809 -79.7823
rradius 36.2826
rwrist 3.04401
rhand -7.46666 15.3098
rfingers 7.12502
rthumb 18.422 -13.8379
lclavicle -1.64991e-014 4.77083e-015
lhumerus -34.5278 10.4474 82.7053
lradius 33.1331
lwrist -7.43932
lhand -18.6951 19.2015
lfingers 7.12502
lthumb 7.59949 49.045
rfemur -12.0231 6.86653 22.2036
rtibia 21.2769
rfoot -11.2457 -6.25605
rtoes 6.76863
lfemur -11.7586 -1.96427 -22.5293
ltibia 20.047
lfoot -12.1949 5.39402
ltoes 2.08064
33
root 0.94125 17.838 -14.8233 7.48016 -5.11729 0.366685
lowerback 6.63472 0.221171 -1.93457
upperback -0.111637 0.229144 2.19157
thorax -3.85616 0.17199 3.33797
lowerneck -16.4985 -2.79445 -9.77053
upperneck 27.5302 -2.47154 4.5521
head 11.9727 -1.5566 3.00168
rclavicle 1.00386e-014 -1.74931e-014
rhumerus -34.3612 -9.12424 -79.7805
rradius 36.4308
rwrist 3.42176
rhand -8.44907 16.9582
rfingers 7.12502
rthumb 17.4767 -12.2762
lclavicle 1.00386e-014 -1.74931e-014
lhumerus -34.4712 10.1828 82.8459
lradius 33.066
lwrist -6.88823
lhand -15.1697 23.7245
lfingers 7.12502
lthumb 11.0011 53.4162
rfemur -12.1801 6.81689 22.1971
rtibia 21.3503
rfoot -11.2548 -6.16215
rtoes 6.72575
lfemur -11.8635 -2.00909 -22.5092
ltibia 20.1021
lfoot -12.222 5.38707
ltoes 2.80661
34
root 0.942349 17.837 -14.8279 7.55753 -5.16096 0.337247
lowerback 6.66251 0.233121 -1.925
upperback -0.0867861 0.246094 2.21166
thorax -3.84729 0.179964 3.3518
lowerneck -16.6353 -2.77514 -9.81742
upperneck 27.6195 -2.4362 4.61915
head 12.034 -1.5377 3.04239
rclavicle -9.0447e-015 7.95139e-015
rhumerus -34.2974 -8.96219 -79.8792
rradius 36.6523
rwrist 3.2622
rhand -8.64217 16.4687
rfingers 7.12502
rthumb 17.2909 -12.7821
lclavicle -9.0447e-015 7.95139e-015
lhumerus -34.3985 10.0014 82.9759
lradius 33.1895
lwrist -6.4939
lhand -14.3844 24.6997
lfingers 7.12502
lthumb 11.7585 54.3497
rfemur -12.3472 6.77063 22.2172
rtibia 21.4438
rfoot -11.3122 -6.0841
rtoes 6.24615
lfemur -12.0011 -2.00424 -22.47
ltibia 20.1713
lfoot -12.3133 5.35956
ltoes 3.14871
35
root 0.942908 17.8341 -14.8291 7.56861 -5.15928 0.353822
lowerback 6.61767 0.223019 -1.92773
upperback -0.0149803 0.232003 2.20621
thorax -3.74648 0.170541 3.3485
lowerneck -16.5523 -2.7292 -9.76309
upperneck 27.4956 -2.38686 4.59788
head 11.9625 -1.51071 3.03001
rclavicle -1.04362e-014 -2.06736e-014
rhumerus -34.2385 -8.73261 -80.0079
rradius 36.9676
rwrist 2.77193
rhand -7.72798 14.5603
rfingers 7.12502
rthumb 18.1706 -14.611
lclavicle -1.04362e-014 -2.06736e-014
lhumerus -34.2846 9.94513 83.0244
lradius 33.4141
lwrist -6.34646
lhand -14.5107 25.8488
lfingers 7.12502
lthumb 11.6366 55.5057
rfemur -12.4055 6.76631 22.1877
rtibia 21.5436
rfoot -11.3974 -6.09561
rtoes 6.18667
lfemur -12.1044 -1.91366 -22.4858
ltibia 20.3093
lfoot -12.4736 5.31365
ltoes 3.0671
36
root 0.944152 17.8284 -14.8315 7.52341 -5.02083 0.374399
lowerback 6.64432 0.169363 -1.88677
upperback 0.0461687 0.162269 2.19095
thorax -3.6927 0.133413 3.31601
lowerneck -16.3528 -2.7377 -9.68304
upperneck 27.3664 -2.409 4.48572
head 11.8709 -1.52565 2.9679
rclavicle 6.06293e-015 1.43125e-014
rhumerus -34.1838 -8.51775 -80.1328
rradius 37.2255
rwrist 2.5708
rhand -7.47215 14.0897
rfingers 7.12502
rthumb 18.4167 -15.0585
lclavicle 6.06293e-015 1.43125e-014
lhumerus -34.3602 9.82871 83.0502
lradius 33.8397
lwrist -6.42874
lhand -14.3412 27.4154
lfingers 7.12502
lthumb 11.8001 57.063
rfemur -12.3951 6.67119 22.182
rtibia 21.6667
rfoot -11.5233 -6.18925
rtoes 5.88488
lfemur -12.1847 -1.82612 -22.5028
ltibia 20.4763
lfoot -12.636 5.1333
ltoes 2.59572
37
root 0.944383 17.8236 -14.8382 7.55534 -4.90363 0.384944
lowerback 6.74963 0.153879 -1.88934
upperback 0.0274045 0.140196 2.17991
thorax -3.76974 0.123764 3.30874
lowerneck -16.1865 -2.77992 -9.60907
upperneck 27.348 -2.48933 4.41865
head 11.8349 -1.56357 2.91772
rclavicle -5.06901e-015 2.38542e-015
rhumerus -34.3037 -8.40256 -80.1937
rradius 37.5752
rwrist 2.5915
rhand -7.68486 14.5463
rfingers 7.12502
rthumb 18.212 -14.6212
lclavicle -5.06901e-015 2.38542e-015
lhumerus -34.5883 9.46682 83.1589
lradius 34.3502
lwrist -6.24769
lhand -14.4744 26.3006
lfingers 7.12502
lthumb 11.6717 55.9555
rfemur -12.495 6.65327 22.1774
rtibia 21.7937
rfoot -11.6898 -6.28361
rtoes 5.69689
lfemur -12.3679 -1.73187 -22.5129
ltibia 20.6685
lfoot -12.6958 5.00193
ltoes 1.59933
38
root 0.946653 17.8236 -14.8464 7.6208 -4.84826 0.448016
lowerback 6.86396 0.164499 -1.94243
upperback 0.0138223 0.147947 2.14892
thorax -3.84872 0.129675 3.30638
lowerneck -16.1022 -2.73791 -9.43135
upperneck 27.297 -2.4717 4.35945
head 11.7919 -1.54423 2.86699
rclavicle -2.28602e-015 -3.57812e-014
rhumerus -34.3439 -8.26386 -80.2826
rradius 37.8775
rwrist 2.33489
rhand -7.43394 13.8518
rfingers 7.12502
rthumb 18.4534 -15.2929
lclavicle -2.28602e-015 -3.57812e-014
lhumerus -34.6864 9.09991 83.2726
lradius 34.8705
lwrist -6.07011
lhand -13.2677 27.4228
lfingers 7.12502
lthumb 12.8351 57.0082
rfemur -12.6615 6.57434 22.0929
rtibia 21.9245
rfoot -11.792 -6.25292
rtoes 5.87644
lfemur -12.6329 -1.57427 -22.5961
ltibia 20.9077
lfoot -12.7155 4.85134
ltoes 1.56408
39
root 0.95166 17.8202 -14.8571 7.67411 -4.82878 0.456915
lowerback 6.97889 0.164936 -1.88645
upperback 0.035008 0.150569 2.12047
thorax -3.8912 0.129995 3.2452
lowerneck -16.0336 -2.70089 -9.334
upperneck 27.1919 -2.45994 4.38502
head 11.7339 -1.52409 2.86001
rclavicle 1.59028e-015 1.03368e-014
rhumerus -34.2555 -8.15055 -80.3769
rradius 38.0522
rwrist 2.17744
rhand -7.35182 13.4979
rfingers 7.12502
rthumb 18.5324 -15.6393
lclavicle 1.59028e-015 1.03368e-014
lhumerus -34.6533 8.84341 83.3623
lradius 35.3436
lwrist -5.94236
lhand -9.87896 35.151
lfingers 7.12502
lthumb 16.1002 64.5022
rfemur -12.8347 6.44394 22.0559
rtibia 22.0533
rfoot -11.8228 -6.18696
rtoes 5.84111
lfemur -12.8615 -1.66381 -22.6128
ltibia 21.1694
lfoot -12.7943 4.94844
ltoes 2.21499
40
root 0.953056 17.8138 -14.8684 7.78554 -4.86767 0.318305
lowerback 7.02676 0.182673 -1.72104
upperback 0.111582 0.187266 2.14077
thorax -3.84059 0.143618 3.16877
lowerneck -16.2208 -2.73872 -9.42276
upperneck 27.2184 -2.50334 4.50268
head 11.7885 -1.53649 2.91322
rclavicle 1.2424e-014 -5.56597e-015
rhumerus -34.0373 -8.07484 -80.4863
rradius 38.2206
rwrist 2.29151
rhand -7.64568 14.0137
rfingers 7.12502
rthumb 18.2497 -15.1502
lclavicle 1.2424e-014 -5.56597e-015
lhumerus -34.4177 8.53051 83.5478
lradius 35.6452
lwrist -5.47551
lhand -13.6435 27.7692
lfingers 7.12502
lthumb 12.4729 57.377
rfemur -13.0921 6.45662 22.1748
rtibia 22.2104
rfoot -11.806 -6.1118
rtoes 5.84161
lfemur -13.1136 -1.90965 -22.4357
ltibia 21.401
lfoot -12.8841 5.14719
ltoes 2.93231
41
root 0.95373 17.807 -14.8748 7.88443 -4.84061 0.0986134
lowerback 7.09267 0.204082 -1.49204
upperback 0.183443 0.23513 2.19044
thorax -3.80545 0.162309 3.08592
lowerneck -16.4571 -2.80943 -9.49862
upperneck 27.3289 -2.57936 4.57216
head 11.8884 -1.56924 2.94274
rclavicle 2.74323e-014 1.51076e-014
rhumerus -33.8732 -8.00158 -80.5651
rradius 38.4332
rwrist 2.49447
rhand -8.15246 14.831
rfingers 7.12502
rthumb 17.7621 -14.3778
lclavicle 2.74323e-014 1.51076e-014
lhumerus -34.241 8.13205 83.7506
lradius 36.0074
lwrist -4.86992
lhand -14.862 25.3808
lfingers 7.12502
lthumb 11.2978 55.0566
rfemur -13.2769 6.51346 22.4016
rtibia 22.3586
rfoot -11.8485 -6.15148
rtoes 5.97989
lfemur -13.423 -1.9391 -22.175
ltibia 21.7103
lfoot -12.9745 5.13379
ltoes 3.11398
42
root 0.956047 17.8021 -14.88 7.84757 -4.75748 0.14824
lowerback 7.26722 0.193594 -1.50308
upperback 0.225644 0.218157 2.17134
thorax -3.85849 0.154104 3.0745
lowerneck -16.4211 -2.83147 -9.49135
upperneck 27.344 -2.62148 4.5867
head 11.8906 -1.58604 2.94104
rclavicle -2.13694e-014 -4.21423e-014
rhumerus -33.906 -7.83381 -80.6485
rradius 38.802
rwrist 2.53612
rhand -8.56933 15.6064
rfingers 7.12502
rthumb 17.361 -13.6382
lclavicle -2.13694e-014 -4.21423e-014
lhumerus -34.3317 7.73989 83.9489
lradius 36.5183
lwrist -3.86701
lhand -15.4302 24.7496
lfingers 7.12502
lthumb 10.7498 54.4546
rfemur -13.305 6.36395 22.3543
rtibia 22.4968
rfoot -11.9354 -6.12067
rtoes 6.05122
lfemur -13.573 -1.81242 -22.2433
ltibia 22.1141
lfoot -13.1632 4.96873
ltoes 3.17786
43
root 0.962388 17.8044 -14.8905 7.80091 -4.67525 0.384556
lowerback 7.44448 0.17877 -1.66713
upperback 0.283007 0.180497 2.10982
thorax -3.89629 0.137701 3.10766
lowerneck -16.3883 -2.81513 -9.49139
upperneck 27.3693 -2.61134 4.61878
head 11.8931 -1.57811 2.95543
rclavicle -3.67752e-015 7.15625e-015
rhumerus -34.0338 -7.48703 -80.7612
rradius 39.4708
rwrist 2.13357
rhand -8.20474 15.1891
rfingers 7.12502
rthumb 17.7118 -14.0243
lclavicle -3.67752e-015 7.15625e-015
lhumerus -34.4332 7.34318 84.1969
lradius 37.1073
lwrist -2.94826
lhand -15.8748 24.3523
lfingers 7.12502
lthumb 10.3209 54.0791
rfemur -13.3989 6.13818 22.0742
rtibia 22.6435
rfoot -11.967 -5.9822
rtoes 6.17034
lfemur -13.6362 -1.67403 -22.545
ltibia 22.5745
lfoot -13.5233 4.73176
ltoes 3.26092
44
root 0.970031 17.8067 -14.9033 7.92328 -4.61536 0.394636
lowerback 7.5251 0.116914 -1.71118
upperback 0.276651 0.0972124 2.19405
thorax -3.94295 0.0986233 3.22991
lowerneck -16.2893 -2.72343 -9.5072
upperneck 27.3084 -2.45778 4.52917
head 11.8356 -1.52213 2.94628
rclavicle -6.85807e-015 3.18055e-015
rhumerus -34.2736 -6.76281 -80.8759
rradius 40.3599
rwrist 1.63754
rhand -7.98108 14.5733
rfingers 7.12502
rthumb 17.927 -14.6204
lclavicle -6.85807e-015 3.18055e-015
lhumerus -34.5333 7.31321 84.3659
lradius 37.8743
lwrist -3.00856
lhand -14.9598 25.7049
lfingers 7.12502
lthumb 11.2035 55.3858
rfemur -13.6795 5.95095 22.0199
rtibia 22.796
rfoot -11.9565 -5.82984
rtoes 6.14279
lfemur -13.9849 -1.71016 -22.5806
ltibia 23.0842
lfoot -13.7957 4.67574
ltoes 3.59046
